HIERARCHY
ROOT Hips
{
	OFFSET	0.00	0.00	0.00
	CHANNELS 6 Xposition Yposition Zposition Zrotation Xrotation Yrotation
	JOINT LeftUpLeg
	{
		OFFSET	 0.126116	-0.014019	-0.065224
		CHANNELS 3 Zrotation Xrotation Yrotation
		JOINT LeftLeg
		{
			OFFSET	 0.000000	 0.000000	 0.569914
			CHANNELS 3 Zrotation Xrotation Yrotation
			JOINT LeftFoot
			{
				OFFSET	 0.000000	 0.000000	 0.544423
				CHANNELS 3 Zrotation Xrotation Yrotation
				JOINT LeftToeBase
				{
					OFFSET	 0.000000	 0.000000	 0.207117
					CHANNELS 3 Zrotation Xrotation Yrotation
					End Site
					{
						OFFSET	 0.000000	 0.000000	 0.207117
					}
				}
			}
		}
	}
	JOINT RightUpLeg
	{
		OFFSET	-0.124023	-0.008373	-0.065224
		CHANNELS 3 Zrotation Xrotation Yrotation
		JOINT RightLeg
		{
			OFFSET	 0.000000	 0.000000	 0.570047
			CHANNELS 3 Zrotation Xrotation Yrotation
			JOINT RightFoot
			{
				OFFSET	 0.000000	 0.000000	 0.544354
				CHANNELS 3 Zrotation Xrotation Yrotation
				JOINT RightToeBase
				{
					OFFSET	 0.000000	 0.000000	 0.207540
					CHANNELS 3 Zrotation Xrotation Yrotation
					End Site
					{
						OFFSET	 0.000000	 0.000000	 0.207540
					}
				}
			}
		}
	}
	JOINT Spine
	{
		OFFSET	 0.000184	-0.007763	 0.117403
		CHANNELS 3 Zrotation Xrotation Yrotation
		JOINT Spine1
		{
			OFFSET	 0.000000	 0.000000	 0.137269
			CHANNELS 3 Zrotation Xrotation Yrotation
			JOINT Spine2
			{
				OFFSET	 0.000000	 0.000000	 0.156879
				CHANNELS 3 Zrotation Xrotation Yrotation
				JOINT LeftShoulder
				{
					OFFSET	 0.080501	-0.002496	 0.160144
					CHANNELS 3 Zrotation Xrotation Yrotation
					JOINT LeftArm
					{
						OFFSET	 0.000000	 0.000000	 0.164363
						CHANNELS 3 Zrotation Xrotation Yrotation
						JOINT LeftForeArm
						{
							OFFSET	 0.000000	 0.000000	 0.364576
							CHANNELS 3 Zrotation Xrotation Yrotation
							JOINT LeftHand
							{
								OFFSET	 0.000000	 0.000000	 0.360812
								CHANNELS 3 Zrotation Xrotation Yrotation
								JOINT LeftHandIndex1
								{
									OFFSET	 0.000000	 0.000000	 0.086006
									CHANNELS 3 Zrotation Xrotation Yrotation
									JOINT LeftHandIndex2
									{
										OFFSET	 0.000000	 0.000000	 0.047236
										CHANNELS 3 Zrotation Xrotation Yrotation
										JOINT LeftHandIndex3
										{
											OFFSET	-0.004284	-0.000551	 0.038166
											CHANNELS 3 Zrotation Xrotation Yrotation
											End Site
											{
												OFFSET	-0.004284	-0.000551	 0.038166
											}
										}
									}
								}
							}
						}
					}
				}
				JOINT Neck
				{
					OFFSET	 0.000000	 0.000000	 0.176489
					CHANNELS 3 Zrotation Xrotation Yrotation
					JOINT Head
					{
						OFFSET	 0.000000	-0.001747	 0.077940
						CHANNELS 3 Zrotation Xrotation Yrotation
						End Site
						{
							OFFSET	 0.000000	-0.001747	 0.077940
						}
					}
				}
				JOINT RightShoulder
				{
					OFFSET	-0.080363	 0.000306	 0.159706
					CHANNELS 3 Zrotation Xrotation Yrotation
					JOINT RightArm
					{
						OFFSET	 0.000000	 0.000000	 0.164196
						CHANNELS 3 Zrotation Xrotation Yrotation
						JOINT RightForeArm
						{
							OFFSET	 0.000000	 0.000000	 0.365611
							CHANNELS 3 Zrotation Xrotation Yrotation
							JOINT RightHand
							{
								OFFSET	 0.000000	 0.000000	 0.360648
								CHANNELS 3 Zrotation Xrotation Yrotation
								JOINT RightHandIndex1
								{
									OFFSET	 0.000000	 0.000000	 0.069977
									CHANNELS 3 Zrotation Xrotation Yrotation
									JOINT RightHandIndex2
									{
										OFFSET	 0.000000	 0.000000	 0.052305
										CHANNELS 3 Zrotation Xrotation Yrotation
										JOINT RightHandIndex3
										{
											OFFSET	 0.009002	-0.000782	 0.042196
											CHANNELS 3 Zrotation Xrotation Yrotation
											End Site
											{
												OFFSET	 0.009002	-0.000782	 0.042196
											}
										}
									}
								}
							}
						}
					}
				}
			}
		}
	}
}
MOTION
Frames:    6
Frame Time: 0.03333334
-0.039910	 0.269755	 1.005323	 1.499517	 34.704590	-7.158453	 50.856970	-83.908410	-133.760000	 8.100188	-74.351780	 8.205450	 43.494140	 83.429760	-47.410640	-2.385833	 28.452760	 0.000004	 86.576640	-81.561940	-95.890000	-19.042350	-76.508440	-13.526890	 8.187776	 82.180840	 7.884674	 2.384659	 28.388700	-0.000001	-2.216694	 15.109300	 1.631288	-2.892700	 21.523600	 3.799139	-0.024744	-0.128794	 2.152388	-99.256590	 68.213680	 156.484400	 7.508512	-7.287547	-47.422430	-23.715730	 8.735995	-19.520670	-39.822950	-28.998900	-25.864080	-2.027600	 6.559038	 9.033609	-5.188889	 0.308190	 3.541030	-5.234859	 0.342567	 0.430617	 0.668359	 19.187970	-6.779757	 2.137527	-28.225040	 0.599643	 97.526080	 64.694780	-158.903500	-5.102232	 5.022135	 53.944450	 5.854533	 10.359990	 37.328530	 23.076230	-29.053520	 20.553940	 1.803333	 3.979147	-15.098590	 4.898592	 3.004813	-9.310344	 5.224449	 0.395017	 2.014677
-0.038413	 0.269799	 1.022369	 0.781946	 33.349780	-6.139168	 32.901610	-81.910920	-152.095000	 6.459619	-72.128020	 6.547303	 36.777480	 83.106270	-40.548490	-2.385832	 28.452790	-0.000001	 63.912510	-81.744030	-118.453700	-17.240720	-73.868400	-11.631470	 6.762049	 81.246470	 9.142995	 2.384659	 28.388700	-0.000001	-0.424637	 15.018190	 1.672738	-2.813203	 22.473560	 3.931403	 1.107573	-1.755661	 1.377905	-98.811750	 68.439000	 157.515400	 7.319676	-4.776982	-47.552760	-22.929620	 10.221590	-21.905160	-40.310080	-28.155900	-26.284340	-2.027600	 6.559038	 9.033609	-5.188889	 0.308190	 3.541030	-5.234859	 0.342567	 0.430617	-0.189518	 13.913510	-4.754234	 2.683603	-23.106870	-0.119126	 97.238130	 64.392440	-159.908000	-5.905842	 5.047344	 53.620790	 6.361002	 11.130570	 38.798820	 23.209650	-27.794770	 22.011090	 1.803333	 3.979147	-15.098590	 4.898592	 3.004813	-9.310344	 5.224449	 0.395017	 2.014677
-0.035821	 0.270348	 1.045324	 0.250581	 31.392880	-5.111887	 20.392060	-78.344250	-164.748200	 5.237290	-68.887830	 5.276549	 28.275630	 82.266500	-32.058340	-2.385833	 28.452760	 0.000004	 37.635360	-79.836490	-144.269200	-15.694070	-70.287580	-9.942369	 5.669947	 80.017910	 9.994530	 2.384659	 28.388700	-0.000001	 1.646784	 14.980540	 1.716477	-2.712075	 23.354490	 3.946275	 2.086360	-3.818864	 0.601376	-97.703530	 69.861350	 158.855600	 8.025137	-0.158337	-48.591620	-21.874880	 11.296850	-23.894880	-41.077530	-27.195880	-27.618980	-2.027600	 6.559038	 9.033609	-5.188889	 0.308190	 3.541030	-5.234859	 0.342567	 0.430617	-0.877475	 5.897513	-2.969220	 3.236195	-15.413230	-1.046255	 96.753490	 64.258410	-161.257800	-7.522993	 5.680958	 52.968090	 6.125521	 11.795930	 41.065120	 22.372860	-25.799510	 23.054640	 1.803333	 3.979147	-15.098590	 4.898592	 3.004813	-9.310344	 5.224449	 0.395017	 2.014677
-0.032602	 0.271296	 1.068034	-0.102707	 29.269050	-4.150110	 14.162610	-74.309340	-171.111100	 4.702405	-65.523300	 4.661034	 22.309330	 81.285420	-26.171220	-2.385833	 28.452760	 0.000004	 21.564420	-76.346860	-159.803600	-14.894050	-66.555750	-8.956681	 5.328957	 78.885700	 10.288590	 2.384659	 28.388700	-0.000001	 3.479326	 15.089170	 1.689981	-2.648171	 23.984870	 3.835394	 2.764156	-5.842260	 0.115550	-95.761890	 72.959520	 159.989000	 9.514777	 5.742930	-50.701530	-20.842190	 11.756430	-25.058690	-41.931830	-26.450720	-29.135740	-2.027600	 6.559038	 9.033609	-5.188889	 0.308190	 3.541030	-5.234859	 0.342567	 0.430617	-1.255216	-2.386642	-2.208685	 3.763065	-7.500237	-1.606009	 95.780940	 65.931430	-162.378700	-9.299303	 8.714445	 52.881420	 5.143319	 11.973840	 43.325070	 21.777160	-24.794790	 23.708720	 1.803333	 3.979147	-15.098590	 4.898592	 3.004813	-9.310344	 5.224449	 0.395017	 2.014677
-0.028211	 0.270558	 1.093638	-0.101381	 26.830190	-3.160595	 10.072350	-69.489210	-175.181100	 4.615915	-61.592620	 4.429061	 17.744530	 79.955980	-21.728400	-2.385833	 28.452750	 0.000004	 11.635460	-71.441590	-169.016100	-12.777280	-62.249600	-6.761967	 5.186717	 77.794060	 9.836249	 2.384659	 28.388700	-0.000001	 5.359642	 15.146150	 1.469120	-2.607794	 24.496870	 3.475845	 3.284529	-8.066980	-0.107337	-93.150110	 76.773430	 160.977000	 11.986330	 11.681600	-53.184010	-19.494600	 12.358270	-26.689190	-42.140380	-25.732860	-30.611150	-2.027600	 6.559038	 9.033609	-5.188889	 0.308190	 3.541030	-5.234859	 0.342567	 0.430617	-1.618525	-11.905100	-2.546004	 4.288619	 1.536718	-1.728020	 94.483570	 68.480700	-163.656300	-11.730280	 12.667840	 53.264470	 3.896887	 12.151680	 46.363320	 21.168190	-24.308650	 24.003640	 1.803333	 3.979147	-15.098590	 4.898592	 3.004813	-9.310344	 5.224449	 0.395017	 2.014677
-0.022766	 0.265999	 1.121223	 0.697486	 24.851140	-2.450195	 8.054506	-64.615590	-176.831800	 4.547039	-57.020210	 4.099064	 15.833900	 78.290080	-19.671220	-2.385833	 28.452750	 0.000004	 6.058677	-66.136160	-173.498600	-10.362380	-57.379120	-4.396821	 6.372085	 76.366280	 7.895108	 2.384659	 28.388700	-0.000001	 7.348861	 14.199430	 0.641032	-2.815517	 24.548860	 2.928345	 3.654536	-10.178280	-0.424178	-93.880450	 75.300450	 163.198200	 14.146680	 13.376970	-50.817710	-17.293620	 14.400190	-31.352820	-40.311740	-24.423220	-31.780780	-2.027600	 6.559038	 9.033609	-5.188889	 0.308190	 3.541030	-5.234859	 0.342567	 0.430617	-1.665941	-14.604330	-1.052208	 4.599196	 4.100019	-2.685265	 93.758090	 69.616420	-164.826700	-14.199120	 15.947870	 51.561310	 2.417290	 12.321260	 50.307820	 19.966300	-23.400340	 23.741020	 1.803333	 3.979147	-15.098590	 4.898592	 3.004813	-9.310344	 5.224449	 0.395017	 2.014677
